<mxfile host="app.diagrams.net" agent="Mozilla/5.0 (Windows NT 10.0; Win64; x64) AppleWebKit/537.36 (KHTML, like Gecko) Chrome/128.0.0.0 Safari/537.36" version="24.7.7">
  <diagram name="Page-1" id="JvRKiuHpS6OcZpyymJEh">
    <mxGraphModel dx="1050" dy="513" grid="0" gridSize="10" guides="1" tooltips="1" connect="1" arrows="1" fold="1" page="1" pageScale="1" pageWidth="827" pageHeight="1169" math="0" shadow="0">
      <root>
        <mxCell id="0" />
        <mxCell id="1" parent="0" />
        <mxCell id="rsIllZGZeN-fgqIDOh_S-1" value="&lt;b&gt;L’utilisateur saisie des caractères&lt;br&gt;dans la barre de recherche.&lt;/b&gt;" style="rounded=1;whiteSpace=wrap;html=1;fillColor=#eeeeee;strokeColor=#36393d;" parent="1" vertex="1">
          <mxGeometry x="290" y="40" width="140" height="70" as="geometry" />
        </mxCell>
        <mxCell id="rsIllZGZeN-fgqIDOh_S-2" value="chaine de caractère &lt;br&gt;&amp;gt;= 3" style="rhombus;whiteSpace=wrap;html=1;fillColor=#fff2cc;strokeColor=#d6b656;" parent="1" vertex="1">
          <mxGeometry x="310" y="180" width="100" height="100" as="geometry" />
        </mxCell>
        <mxCell id="rsIllZGZeN-fgqIDOh_S-3" value="" style="endArrow=classic;html=1;rounded=0;exitX=0.5;exitY=1;exitDx=0;exitDy=0;" parent="1" source="rsIllZGZeN-fgqIDOh_S-1" target="rsIllZGZeN-fgqIDOh_S-2" edge="1">
          <mxGeometry width="50" height="50" relative="1" as="geometry">
            <mxPoint x="339" y="230" as="sourcePoint" />
            <mxPoint x="389" y="180" as="targetPoint" />
          </mxGeometry>
        </mxCell>
        <mxCell id="rsIllZGZeN-fgqIDOh_S-4" value="" style="endArrow=classic;html=1;rounded=0;exitX=0.254;exitY=1.004;exitDx=0;exitDy=0;exitPerimeter=0;entryX=0;entryY=0.5;entryDx=0;entryDy=0;" parent="1" source="rsIllZGZeN-fgqIDOh_S-5" target="rsIllZGZeN-fgqIDOh_S-13" edge="1">
          <mxGeometry width="50" height="50" relative="1" as="geometry">
            <mxPoint x="413" y="230" as="sourcePoint" />
            <mxPoint x="486" y="230" as="targetPoint" />
          </mxGeometry>
        </mxCell>
        <mxCell id="rsIllZGZeN-fgqIDOh_S-5" value="&lt;b&gt;Oui&lt;/b&gt;" style="text;html=1;align=center;verticalAlign=middle;resizable=0;points=[];autosize=1;strokeColor=none;fillColor=none;" parent="1" vertex="1">
          <mxGeometry x="400" y="200" width="40" height="30" as="geometry" />
        </mxCell>
        <mxCell id="rsIllZGZeN-fgqIDOh_S-11" value="" style="endArrow=classic;html=1;rounded=0;exitX=0;exitY=0.5;exitDx=0;exitDy=0;" parent="1" source="rsIllZGZeN-fgqIDOh_S-2" edge="1">
          <mxGeometry width="50" height="50" relative="1" as="geometry">
            <mxPoint x="309" y="230" as="sourcePoint" />
            <mxPoint x="289" y="80" as="targetPoint" />
            <Array as="points">
              <mxPoint x="210" y="230" />
              <mxPoint x="210" y="80" />
            </Array>
          </mxGeometry>
        </mxCell>
        <mxCell id="rsIllZGZeN-fgqIDOh_S-12" value="&lt;b&gt;Non&lt;/b&gt;" style="edgeLabel;html=1;align=center;verticalAlign=middle;resizable=0;points=[];" parent="rsIllZGZeN-fgqIDOh_S-11" connectable="0" vertex="1">
          <mxGeometry relative="1" as="geometry">
            <mxPoint x="-17" as="offset" />
          </mxGeometry>
        </mxCell>
        <mxCell id="rsIllZGZeN-fgqIDOh_S-13" value="&lt;b&gt;Recherche&lt;br&gt;dans le tableau de recettes&lt;/b&gt;" style="rounded=1;whiteSpace=wrap;html=1;fillColor=#eeeeee;strokeColor=#36393d;" parent="1" vertex="1">
          <mxGeometry x="490" y="200" width="120" height="60" as="geometry" />
        </mxCell>
        <mxCell id="rsIllZGZeN-fgqIDOh_S-14" value="" style="endArrow=classic;html=1;rounded=0;entryX=0.5;entryY=0;entryDx=0;entryDy=0;" parent="1" target="rsIllZGZeN-fgqIDOh_S-15" edge="1">
          <mxGeometry width="50" height="50" relative="1" as="geometry">
            <mxPoint x="549" y="260" as="sourcePoint" />
            <mxPoint x="673.27" y="370" as="targetPoint" />
            <Array as="points">
              <mxPoint x="550" y="290" />
              <mxPoint x="385" y="290" />
            </Array>
          </mxGeometry>
        </mxCell>
        <mxCell id="rsIllZGZeN-fgqIDOh_S-15" value="&lt;b&gt;Résultat(s)&amp;nbsp;&lt;br&gt;trouvé(s) ?&lt;/b&gt;" style="rhombus;whiteSpace=wrap;html=1;fillColor=#fff2cc;strokeColor=#d6b656;" parent="1" vertex="1">
          <mxGeometry x="335" y="320" width="100" height="100" as="geometry" />
        </mxCell>
        <mxCell id="rsIllZGZeN-fgqIDOh_S-17" value="" style="endArrow=classic;html=1;rounded=0;exitX=0;exitY=0.5;exitDx=0;exitDy=0;" parent="1" source="rsIllZGZeN-fgqIDOh_S-15" edge="1">
          <mxGeometry width="50" height="50" relative="1" as="geometry">
            <mxPoint x="309" y="370" as="sourcePoint" />
            <mxPoint x="269" y="370" as="targetPoint" />
          </mxGeometry>
        </mxCell>
        <mxCell id="rsIllZGZeN-fgqIDOh_S-18" value="&lt;b&gt;Non&lt;/b&gt;" style="edgeLabel;html=1;align=center;verticalAlign=middle;resizable=0;points=[];" parent="rsIllZGZeN-fgqIDOh_S-17" connectable="0" vertex="1">
          <mxGeometry relative="1" as="geometry">
            <mxPoint x="4" y="-10" as="offset" />
          </mxGeometry>
        </mxCell>
        <mxCell id="rsIllZGZeN-fgqIDOh_S-21" value="" style="endArrow=classic;html=1;rounded=0;exitX=1;exitY=0.5;exitDx=0;exitDy=0;" parent="1" source="rsIllZGZeN-fgqIDOh_S-15" edge="1">
          <mxGeometry width="50" height="50" relative="1" as="geometry">
            <mxPoint x="413" y="369.74" as="sourcePoint" />
            <mxPoint x="469" y="369.74" as="targetPoint" />
          </mxGeometry>
        </mxCell>
        <mxCell id="rsIllZGZeN-fgqIDOh_S-22" value="&lt;b&gt;Oui&lt;/b&gt;" style="edgeLabel;html=1;align=center;verticalAlign=middle;resizable=0;points=[];" parent="rsIllZGZeN-fgqIDOh_S-21" connectable="0" vertex="1">
          <mxGeometry relative="1" as="geometry">
            <mxPoint x="-10" y="-11" as="offset" />
          </mxGeometry>
        </mxCell>
        <mxCell id="rsIllZGZeN-fgqIDOh_S-23" value="Afficher le message :&lt;br&gt;« Aucune recette ne contient &#39;XXX&#39; vous pouvez chercher «&lt;br&gt;tarte aux pommes », « poisson »" style="rounded=1;whiteSpace=wrap;html=1;fillColor=#eeeeee;strokeColor=#36393d;" parent="1" vertex="1">
          <mxGeometry x="120" y="320" width="150" height="120" as="geometry" />
        </mxCell>
        <mxCell id="rsIllZGZeN-fgqIDOh_S-24" value="&lt;b&gt;L’utilisateur commence la recherche par un tag.&lt;/b&gt;" style="rounded=1;whiteSpace=wrap;html=1;fillColor=#eeeeee;strokeColor=#36393d;" parent="1" vertex="1">
          <mxGeometry x="480" y="40" width="140" height="70" as="geometry" />
        </mxCell>
        <mxCell id="rsIllZGZeN-fgqIDOh_S-26" value="" style="endArrow=classic;html=1;rounded=0;exitX=0.5;exitY=1;exitDx=0;exitDy=0;entryX=0.5;entryY=0;entryDx=0;entryDy=0;" parent="1" source="rsIllZGZeN-fgqIDOh_S-24" target="rsIllZGZeN-fgqIDOh_S-13" edge="1">
          <mxGeometry width="50" height="50" relative="1" as="geometry">
            <mxPoint x="509" y="270" as="sourcePoint" />
            <mxPoint x="559" y="220" as="targetPoint" />
          </mxGeometry>
        </mxCell>
        <mxCell id="BIfP_-icA_GTZhqiKhlc-11" value="" style="edgeStyle=orthogonalEdgeStyle;rounded=0;orthogonalLoop=1;jettySize=auto;html=1;" parent="1" source="rsIllZGZeN-fgqIDOh_S-27" target="rsIllZGZeN-fgqIDOh_S-48" edge="1">
          <mxGeometry relative="1" as="geometry">
            <Array as="points">
              <mxPoint x="275" y="690" />
              <mxPoint x="275" y="690" />
            </Array>
          </mxGeometry>
        </mxCell>
        <mxCell id="BIfP_-icA_GTZhqiKhlc-39" value="" style="edgeStyle=orthogonalEdgeStyle;rounded=0;orthogonalLoop=1;jettySize=auto;html=1;" parent="1" source="rsIllZGZeN-fgqIDOh_S-27" target="BIfP_-icA_GTZhqiKhlc-2" edge="1">
          <mxGeometry relative="1" as="geometry" />
        </mxCell>
        <mxCell id="rsIllZGZeN-fgqIDOh_S-27" value="&lt;b&gt;L’interface est actualisée avec les résultats de recherche&lt;/b&gt;" style="rounded=1;whiteSpace=wrap;html=1;fillColor=none;" parent="1" vertex="1">
          <mxGeometry x="40" y="490" width="690" height="70" as="geometry" />
        </mxCell>
        <mxCell id="rsIllZGZeN-fgqIDOh_S-28" value="" style="endArrow=classic;html=1;rounded=0;entryX=0.5;entryY=0;entryDx=0;entryDy=0;exitX=0.5;exitY=1;exitDx=0;exitDy=0;" parent="1" source="rsIllZGZeN-fgqIDOh_S-15" target="rsIllZGZeN-fgqIDOh_S-27" edge="1">
          <mxGeometry width="50" height="50" relative="1" as="geometry">
            <mxPoint x="359.85" y="420" as="sourcePoint" />
            <mxPoint x="359.85" y="490" as="targetPoint" />
          </mxGeometry>
        </mxCell>
        <mxCell id="rsIllZGZeN-fgqIDOh_S-29" value="&lt;b&gt;Oui&lt;/b&gt;" style="edgeLabel;html=1;align=center;verticalAlign=middle;resizable=0;points=[];" parent="1" connectable="0" vertex="1">
          <mxGeometry x="460" y="350" as="geometry">
            <mxPoint x="-59" y="105" as="offset" />
          </mxGeometry>
        </mxCell>
        <mxCell id="rsIllZGZeN-fgqIDOh_S-30" value="Les champs de recherche avancée sont actualisés avec les informations&lt;br&gt;ingrédients, ustensiles, appareil des différentes recettes restantes" style="rounded=1;whiteSpace=wrap;html=1;fillColor=#eeeeee;strokeColor=#36393d;" parent="1" vertex="1">
          <mxGeometry x="470" y="320" width="272" height="120" as="geometry" />
        </mxCell>
        <mxCell id="rsIllZGZeN-fgqIDOh_S-37" value="" style="endArrow=classic;html=1;rounded=0;entryX=0.168;entryY=-0.04;entryDx=0;entryDy=0;entryPerimeter=0;" parent="1" target="rsIllZGZeN-fgqIDOh_S-38" edge="1">
          <mxGeometry width="50" height="50" relative="1" as="geometry">
            <mxPoint x="385" y="560" as="sourcePoint" />
            <mxPoint x="460" y="910" as="targetPoint" />
          </mxGeometry>
        </mxCell>
        <mxCell id="rsIllZGZeN-fgqIDOh_S-38" value="&lt;b&gt;L’utilisateur choisit un mot clé dans le champ (ingrédients,&lt;br style=&quot;border-color: var(--border-color);&quot;&gt;ustensiles, appareil)&lt;/b&gt;" style="rounded=1;whiteSpace=wrap;html=1;fillColor=#eeeeee;strokeColor=#36393d;" parent="1" vertex="1">
          <mxGeometry x="320" y="960" width="410" height="40" as="geometry" />
        </mxCell>
        <mxCell id="rsIllZGZeN-fgqIDOh_S-42" value="Le mot clé apparaît sous forme de tag sous la recherche principale" style="rounded=1;whiteSpace=wrap;html=1;fillColor=#eeeeee;strokeColor=#36393d;" parent="1" vertex="1">
          <mxGeometry x="320" y="1020" width="410" height="40" as="geometry" />
        </mxCell>
        <mxCell id="rsIllZGZeN-fgqIDOh_S-45" value="" style="endArrow=classic;html=1;rounded=0;entryX=0.5;entryY=0;entryDx=0;entryDy=0;exitX=0.5;exitY=1;exitDx=0;exitDy=0;" parent="1" source="rsIllZGZeN-fgqIDOh_S-38" target="rsIllZGZeN-fgqIDOh_S-42" edge="1">
          <mxGeometry width="50" height="50" relative="1" as="geometry">
            <mxPoint x="452" y="780" as="sourcePoint" />
            <mxPoint x="453.34000000000003" y="767.5" as="targetPoint" />
          </mxGeometry>
        </mxCell>
        <mxCell id="rsIllZGZeN-fgqIDOh_S-48" value="&lt;b&gt;L’utilisateur sélectionne une recette&lt;/b&gt;" style="rounded=1;whiteSpace=wrap;html=1;fillColor=#eeeeee;strokeColor=#36393d;" parent="1" vertex="1">
          <mxGeometry x="60" y="1080" width="700" height="70" as="geometry" />
        </mxCell>
        <mxCell id="rsIllZGZeN-fgqIDOh_S-49" value="" style="endArrow=classic;html=1;rounded=0;entryX=1;entryY=0.5;entryDx=0;entryDy=0;exitX=1;exitY=0.5;exitDx=0;exitDy=0;" parent="1" source="rsIllZGZeN-fgqIDOh_S-42" target="rsIllZGZeN-fgqIDOh_S-13" edge="1">
          <mxGeometry width="50" height="50" relative="1" as="geometry">
            <mxPoint x="650" y="900" as="sourcePoint" />
            <mxPoint x="620" y="250" as="targetPoint" />
            <Array as="points">
              <mxPoint x="760" y="1040" />
              <mxPoint x="760" y="230" />
            </Array>
          </mxGeometry>
        </mxCell>
        <mxCell id="BIfP_-icA_GTZhqiKhlc-19" value="" style="edgeStyle=orthogonalEdgeStyle;rounded=0;orthogonalLoop=1;jettySize=auto;html=1;entryX=0.5;entryY=0;entryDx=0;entryDy=0;exitX=0.274;exitY=0.971;exitDx=0;exitDy=0;exitPerimeter=0;" parent="1" source="BIfP_-icA_GTZhqiKhlc-2" target="BIfP_-icA_GTZhqiKhlc-18" edge="1">
          <mxGeometry relative="1" as="geometry">
            <Array as="points">
              <mxPoint x="455" y="668" />
            </Array>
          </mxGeometry>
        </mxCell>
        <mxCell id="BIfP_-icA_GTZhqiKhlc-2" value="L&#39;utilisateur saisie des caractères dans un des champs de recherche avancée (ingrédients,&lt;br style=&quot;border-color: var(--border-color);&quot;&gt;ustensiles, appareil)" style="rounded=1;whiteSpace=wrap;html=1;fillColor=#eeeeee;strokeColor=#36393d;" parent="1" vertex="1">
          <mxGeometry x="413" y="600" width="190" height="70" as="geometry" />
        </mxCell>
        <mxCell id="BIfP_-icA_GTZhqiKhlc-23" value="" style="edgeStyle=orthogonalEdgeStyle;rounded=0;orthogonalLoop=1;jettySize=auto;html=1;" parent="1" source="BIfP_-icA_GTZhqiKhlc-18" target="BIfP_-icA_GTZhqiKhlc-20" edge="1">
          <mxGeometry relative="1" as="geometry" />
        </mxCell>
        <mxCell id="BIfP_-icA_GTZhqiKhlc-24" value="&lt;b&gt;Non&lt;/b&gt;" style="edgeLabel;html=1;align=center;verticalAlign=middle;resizable=0;points=[];" parent="BIfP_-icA_GTZhqiKhlc-23" connectable="0" vertex="1">
          <mxGeometry x="-0.2639" y="-1" relative="1" as="geometry">
            <mxPoint x="35" y="5" as="offset" />
          </mxGeometry>
        </mxCell>
        <mxCell id="BIfP_-icA_GTZhqiKhlc-35" value="" style="edgeStyle=orthogonalEdgeStyle;rounded=0;orthogonalLoop=1;jettySize=auto;html=1;" parent="1" source="BIfP_-icA_GTZhqiKhlc-18" target="BIfP_-icA_GTZhqiKhlc-26" edge="1">
          <mxGeometry relative="1" as="geometry" />
        </mxCell>
        <mxCell id="BIfP_-icA_GTZhqiKhlc-18" value="Mot clé &lt;br&gt;trouvé ?" style="rhombus;whiteSpace=wrap;html=1;fillColor=#fff2cc;strokeColor=#d6b656;" parent="1" vertex="1">
          <mxGeometry x="400" y="750" width="110" height="80" as="geometry" />
        </mxCell>
        <mxCell id="BIfP_-icA_GTZhqiKhlc-20" value="Afficher le message : &quot;Aucun résultats.&quot;" style="rounded=1;whiteSpace=wrap;html=1;fillColor=#eeeeee;strokeColor=#36393d;" parent="1" vertex="1">
          <mxGeometry x="405" y="870" width="145" height="50" as="geometry" />
        </mxCell>
        <mxCell id="BIfP_-icA_GTZhqiKhlc-37" value="" style="edgeStyle=orthogonalEdgeStyle;rounded=0;orthogonalLoop=1;jettySize=auto;html=1;" parent="1" source="BIfP_-icA_GTZhqiKhlc-26" target="rsIllZGZeN-fgqIDOh_S-38" edge="1">
          <mxGeometry relative="1" as="geometry">
            <Array as="points">
              <mxPoint x="625" y="950" />
              <mxPoint x="625" y="950" />
            </Array>
          </mxGeometry>
        </mxCell>
        <mxCell id="BIfP_-icA_GTZhqiKhlc-26" value="Affiche les mots clés correspondant à la recherche" style="rounded=1;whiteSpace=wrap;html=1;fillColor=#eeeeee;strokeColor=#36393d;" parent="1" vertex="1">
          <mxGeometry x="525" y="690" width="150" height="50" as="geometry" />
        </mxCell>
        <mxCell id="BIfP_-icA_GTZhqiKhlc-29" value="&lt;b&gt;Oui&lt;/b&gt;" style="edgeLabel;html=1;align=center;verticalAlign=middle;resizable=0;points=[];" parent="1" connectable="0" vertex="1">
          <mxGeometry x="524.995172413793" y="780" as="geometry" />
        </mxCell>
        <mxCell id="BIfP_-icA_GTZhqiKhlc-36" value="" style="endArrow=classic;html=1;rounded=0;exitX=1;exitY=0.5;exitDx=0;exitDy=0;" parent="1" source="BIfP_-icA_GTZhqiKhlc-26" edge="1">
          <mxGeometry width="50" height="50" relative="1" as="geometry">
            <mxPoint x="678" y="715" as="sourcePoint" />
            <mxPoint x="603" y="640" as="targetPoint" />
            <Array as="points">
              <mxPoint x="720" y="715" />
              <mxPoint x="720" y="640" />
            </Array>
          </mxGeometry>
        </mxCell>
      </root>
    </mxGraphModel>
  </diagram>
</mxfile>
